<svg version="1.1" id="Layer_1" xmlns="http://www.w3.org/2000/svg" xmlns:xlink="http://www.w3.org/1999/xlink" x="0px" y="0px"
	 width="64" viewBox="0 0 225 225" enable-background="new 0 0 225 225" xml:space="preserve" style="border-radius: 10px;">
<path fill="#F7F7F7" opacity="1.000000" stroke="none" 
	d="
M107.000000,226.000000 
	C71.333336,226.000000 36.166672,226.000000 1.000005,226.000000 
	C1.000003,151.000000 1.000003,76.000015 1.000002,1.000015 
	C75.999992,1.000010 150.999985,1.000010 225.999969,1.000005 
	C225.999985,75.999985 225.999985,150.999969 226.000000,225.999969 
	C186.500000,226.000000 147.000000,226.000000 107.000000,226.000000 
M135.146759,112.013542 
	C146.578156,100.703583 158.009552,89.393616 169.155228,78.366333 
	C162.153198,71.328133 155.641449,64.782738 148.209183,57.312069 
	C137.137283,68.786530 125.966621,80.363342 114.090149,91.987267 
	C113.620232,92.032997 113.150322,92.078720 112.111214,91.810928 
	C100.877342,80.354340 89.643471,68.897758 79.169884,58.216530 
	C71.800186,65.550743 65.273376,72.046135 58.165318,79.119972 
	C69.520111,90.252350 81.252037,101.754471 92.983002,113.498962 
	C92.983002,113.498962 92.986664,113.742020 92.600014,114.309883 
	C80.943153,125.819092 69.286293,137.328308 58.365013,148.111252 
	C65.522217,155.298080 72.019073,161.821838 79.477936,169.311569 
	C90.308647,158.050522 101.462700,146.453278 113.330917,134.941757 
	C113.807976,134.983307 114.285042,135.024841 115.282898,135.318420 
	C115.508972,135.624969 115.735046,135.931534 116.153549,136.565689 
	C116.311043,136.770676 116.506355,136.929016 117.339645,137.367920 
	C127.830444,148.103165 138.321243,158.838409 148.409164,169.161392 
	C155.743958,161.878922 162.195587,155.473312 169.842102,147.881332 
	C158.299759,136.818909 146.584259,125.590553 134.886856,113.472900 
	C134.874298,113.176735 134.861725,112.880562 135.146759,112.013542 
z"/>
<path fill="#ED7E54" opacity="1.000000" stroke="none" 
	d="
M92.983963,113.256607 
	C81.252037,101.754471 69.520111,90.252350 58.165318,79.119972 
	C65.273376,72.046135 71.800186,65.550743 79.169884,58.216530 
	C89.643471,68.897758 100.877342,80.354340 112.516678,92.310272 
	C106.276077,99.625275 99.630020,106.440941 92.983963,113.256607 
z"/>
<path fill="#2195A2" opacity="1.000000" stroke="none" 
	d="
M112.616760,134.856049 
	C101.462700,146.453278 90.308647,158.050522 79.477936,169.311569 
	C72.019073,161.821838 65.522217,155.298080 58.365013,148.111252 
	C69.286293,137.328308 80.943153,125.819092 93.137550,114.097260 
	C99.793961,119.889107 105.946228,125.860489 111.978943,131.950333 
	C112.568504,132.545471 112.421738,133.870041 112.616760,134.856049 
z"/>
<path fill="#E23922" opacity="1.000000" stroke="none" 
	d="
M134.868774,114.362206 
	C146.584259,125.590553 158.299759,136.818909 169.842102,147.881332 
	C162.195587,155.473312 155.743958,161.878922 148.409164,169.161392 
	C138.321243,158.838409 127.830444,148.103165 116.987907,137.007263 
	C116.481537,136.394150 116.256523,136.257980 115.961121,136.238083 
	C115.735046,135.931534 115.508972,135.624969 114.891487,134.886963 
	C114.475182,133.877121 114.187157,133.040283 114.464088,132.758316 
	C120.505066,126.607506 126.590431,120.499603 132.745407,114.463150 
	C133.123001,114.092827 134.146042,114.380623 134.868774,114.362206 
z"/>
<path fill="#1D3C72" opacity="1.000000" stroke="none" 
	d="
M114.795959,91.940147 
	C125.966621,80.363342 137.137283,68.786530 148.209183,57.312069 
	C155.641449,64.782738 162.153198,71.328133 169.155228,78.366333 
	C158.009552,89.393616 146.578156,100.703583 134.664795,112.462646 
	C127.471672,106.519585 120.751091,100.137138 114.102303,93.680756 
	C113.931320,93.514732 114.547096,92.538513 114.795959,91.940147 
z"/>
<path fill="#F4F3F3" opacity="1.000000" stroke="none" 
	d="
M114.443054,91.963699 
	C114.547096,92.538513 113.931320,93.514732 114.102303,93.680756 
	C120.751091,100.137138 127.471672,106.519585 134.515991,112.748077 
	C134.861725,112.880562 134.874298,113.176735 134.877808,113.917557 
	C134.146042,114.380623 133.123001,114.092827 132.745407,114.463150 
	C126.590431,120.499603 120.505066,126.607506 114.464088,132.758316 
	C114.187157,133.040283 114.475182,133.877121 114.631088,134.760956 
	C114.285042,135.024841 113.807976,134.983307 112.973839,134.898895 
	C112.421738,133.870041 112.568504,132.545471 111.978943,131.950333 
	C105.946228,125.860489 99.793961,119.889107 93.330872,113.813324 
	C92.986664,113.742020 92.983002,113.498962 92.983482,113.377785 
	C99.630020,106.440941 106.276077,99.625275 112.801270,92.467026 
	C113.150322,92.078720 113.620232,92.032997 114.443054,91.963699 
z"/>
<path fill="#F4F3F3" opacity="1.000000" stroke="none" 
	d="
M116.057335,136.401886 
	C116.256523,136.257980 116.481537,136.394150 116.687828,136.843628 
	C116.506355,136.929016 116.311043,136.770676 116.057335,136.401886 
z"/>
</svg>